<?xml version="1.0" encoding="UTF-8"?>
<svg id="SVGRoot" width="48px" height="48px" version="1.1" viewBox="0 0 48 48" xmlns="http://www.w3.org/2000/svg" xmlns:cc="http://creativecommons.org/ns#" xmlns:dc="http://purl.org/dc/elements/1.1/" xmlns:rdf="http://www.w3.org/1999/02/22-rdf-syntax-ns#" xmlns:xlink="http://www.w3.org/1999/xlink">
 <defs>
  <linearGradient id="paint3_linear" x1="69.25" x2="75.501" y1="28.75" y2="35.5" gradientTransform="matrix(0 -.8 .78 0 -6.65 83.4)" gradientUnits="userSpaceOnUse">
   <stop offset="0"/>
   <stop stop-opacity="0" offset="1"/>
  </linearGradient>
  <linearGradient id="linearGradient3211" x1="12" x2="41" y1="15" y2="44" gradientUnits="userSpaceOnUse">
   <stop stop-color="#fdbc4b" offset="0"/>
   <stop stop-color="#fdbc4b" stop-opacity="0" offset="1"/>
  </linearGradient>
  <linearGradient id="paint3_linear-2" x1="69.25" x2="74.063" y1="28.75" y2="32.912" gradientTransform="matrix(2.5862 -.10397 -.35198 2.1627 -144.96 -31.478)" gradientUnits="userSpaceOnUse">
   <stop offset="0"/>
   <stop stop-opacity="0" offset="1"/>
  </linearGradient>
 </defs>
 <metadata>
  <rdf:RDF>
   <cc:Work rdf:about="">
    <dc:format>image/svg+xml</dc:format>
    <dc:type rdf:resource="http://purl.org/dc/dcmitype/StillImage"/>
    <dc:title/>
   </cc:Work>
  </rdf:RDF>
 </metadata>
 <ellipse transform="matrix(1 0 .0085464 .99996 0 0)" cx="23.817" cy="23.759" rx="19.974" ry="19.794" fill="#f19f02" stroke-width="1.6513"/>
 <path d="m12.85 25 4.875-5 6.045 5.7991-5.07 5.2009z" fill="url(#paint3_linear)" stroke-width=".78994"/>
 <path d="m35.036 15 13.964 12.867-21.475 17.515-14.525-13.382z" fill="url(#paint3_linear-2)"/>
 <ellipse cx="8" cy="8.5" rx="4" ry="4.5" opacity="0"/>
 <ellipse cx="18.5" cy="12" rx="4.5" ry="5" opacity="0"/>
 <ellipse cx="-19.5" cy="4" rx="4.5" ry="5" opacity="0"/>
 <ellipse cx="-18" cy="4.5" rx="1" ry=".5" opacity="0"/>
 <ellipse cx="-17.5" cy="4.5" rx="2.5" ry="3.5" opacity="0"/>
 <ellipse cx="24.008" cy="23.356" rx="19.974" ry="19.367" fill="url(#linearGradient3211)" stroke-width="1.6334"/>
 <rect x="13" y="15" width="22" height="17" fill="#fff" stroke-width="6.4464"/>
 <rect x="30" y="27" width="3" height="3" fill="#fff"/>
 <g fill="#95a5a6">
  <rect x="16" y="18" width="4" height="3"/>
  <rect x="16" y="22" width="4" height="3"/>
  <rect x="16" y="26" width="4" height="3"/>
  <rect x="22" y="18" width="4" height="3"/>
  <rect x="28" y="18" width="4" height="3"/>
  <rect x="22" y="22" width="4" height="3"/>
  <rect x="28" y="22" width="4" height="3"/>
  <rect x="22" y="26" width="4" height="3"/>
  <rect x="28" y="26" width="4" height="3"/>
 </g>
</svg>
